<mxfile host="app.diagrams.net" modified="2023-11-20T13:36:52.944Z" agent="Mozilla/5.0 (Windows NT 10.0; Win64; x64; rv:109.0) Gecko/20100101 Firefox/119.0" etag="K_ujtPvehueBsqLkjALA" version="22.1.3" type="device">
  <diagram id="C5RBs43oDa-KdzZeNtuy" name="Page-1">
    <mxGraphModel dx="1434" dy="754" grid="1" gridSize="10" guides="1" tooltips="1" connect="1" arrows="1" fold="1" page="1" pageScale="1" pageWidth="827" pageHeight="1169" math="0" shadow="0">
      <root>
        <mxCell id="WIyWlLk6GJQsqaUBKTNV-0" />
        <mxCell id="WIyWlLk6GJQsqaUBKTNV-1" parent="WIyWlLk6GJQsqaUBKTNV-0" />
        <mxCell id="m-XgOq2ROGePgvQ7ubZI-55" value="&lt;h2 style=&quot;font-size: 19px;&quot;&gt;&lt;font style=&quot;font-size: 21px;&quot;&gt;Presentation&lt;/font&gt;&lt;/h2&gt;" style="shape=folder;fontStyle=1;spacingTop=10;tabWidth=80;tabHeight=30;tabPosition=left;html=1;whiteSpace=wrap;fillColor=#dae8fc;verticalAlign=top;strokeColor=#6c8ebf;" vertex="1" parent="WIyWlLk6GJQsqaUBKTNV-1">
          <mxGeometry x="40" y="20" width="1240" height="260" as="geometry" />
        </mxCell>
        <mxCell id="m-XgOq2ROGePgvQ7ubZI-54" value="&lt;h2 style=&quot;font-size: 19px;&quot;&gt;&lt;font style=&quot;font-size: 21px;&quot;&gt;Logic&lt;/font&gt;&lt;/h2&gt;" style="shape=folder;fontStyle=1;spacingTop=10;tabWidth=80;tabHeight=30;tabPosition=left;html=1;whiteSpace=wrap;fillColor=#dae8fc;verticalAlign=top;strokeColor=#6c8ebf;" vertex="1" parent="WIyWlLk6GJQsqaUBKTNV-1">
          <mxGeometry x="40" y="340" width="1240" height="490" as="geometry" />
        </mxCell>
        <mxCell id="m-XgOq2ROGePgvQ7ubZI-12" value="&lt;h2&gt;Data&lt;/h2&gt;" style="shape=folder;fontStyle=1;spacingTop=10;tabWidth=80;tabHeight=30;tabPosition=left;html=1;whiteSpace=wrap;fontSize=14;verticalAlign=top;fillColor=#dae8fc;strokeColor=#6c8ebf;" vertex="1" parent="WIyWlLk6GJQsqaUBKTNV-1">
          <mxGeometry x="40" y="840" width="1240" height="310" as="geometry" />
        </mxCell>
        <mxCell id="m-XgOq2ROGePgvQ7ubZI-0" value="Product" style="swimlane;fontStyle=1;align=center;verticalAlign=middle;childLayout=stackLayout;horizontal=1;startSize=20;horizontalStack=0;resizeParent=1;resizeLast=0;collapsible=1;marginBottom=0;rounded=0;shadow=0;strokeWidth=1;fontSize=14;fontColor=#000000;fillColor=#1ba1e2;strokeColor=#006EAF;" vertex="1" parent="WIyWlLk6GJQsqaUBKTNV-1">
          <mxGeometry x="160" y="920" width="200" height="190" as="geometry">
            <mxRectangle x="550" y="140" width="160" height="26" as="alternateBounds" />
          </mxGeometry>
        </mxCell>
        <mxCell id="m-XgOq2ROGePgvQ7ubZI-1" value="- id: int&#xa;-productName: string&#xa;-specification: string&#xa;-price: Decimal&#xa;-comments: List&lt;idComment&gt;&#xa;&#xa;&#xa;&#xa;" style="text;align=left;verticalAlign=top;spacingLeft=4;spacingRight=4;overflow=hidden;rotatable=0;points=[[0,0.5],[1,0.5]];portConstraint=eastwest;fontStyle=1;fillColor=#1ba1e2;fontColor=#000000;strokeColor=#006EAF;spacing=0;" vertex="1" parent="m-XgOq2ROGePgvQ7ubZI-0">
          <mxGeometry y="20" width="200" height="90" as="geometry" />
        </mxCell>
        <mxCell id="m-XgOq2ROGePgvQ7ubZI-3" value="+setProduct: void&#xa;+getProduct: Product&#xa;+searchProduct: Product&#xa;&#xa;&#xa;&#xa;" style="text;align=left;verticalAlign=top;spacingLeft=4;spacingRight=4;overflow=hidden;rotatable=0;points=[[0,0.5],[1,0.5]];portConstraint=eastwest;fontStyle=1;fillColor=#1ba1e2;fontColor=#000000;strokeColor=#006EAF;spacing=0;" vertex="1" parent="m-XgOq2ROGePgvQ7ubZI-0">
          <mxGeometry y="110" width="200" height="80" as="geometry" />
        </mxCell>
        <mxCell id="m-XgOq2ROGePgvQ7ubZI-4" value="Comment" style="swimlane;fontStyle=1;align=center;verticalAlign=middle;childLayout=stackLayout;horizontal=1;startSize=20;horizontalStack=0;resizeParent=1;resizeLast=0;collapsible=1;marginBottom=0;rounded=0;shadow=0;strokeWidth=1;fontSize=14;fillColor=#1ba1e2;fontColor=#000000;strokeColor=#006EAF;" vertex="1" parent="WIyWlLk6GJQsqaUBKTNV-1">
          <mxGeometry x="560" y="920" width="200" height="170" as="geometry">
            <mxRectangle x="550" y="140" width="160" height="26" as="alternateBounds" />
          </mxGeometry>
        </mxCell>
        <mxCell id="m-XgOq2ROGePgvQ7ubZI-5" value="- id: int&#xa;-text: string&#xa;-idUser: int&#xa;-idProduct:int&#xa;&#xa;" style="text;align=left;verticalAlign=top;spacingLeft=4;spacingRight=4;overflow=hidden;rotatable=0;points=[[0,0.5],[1,0.5]];portConstraint=eastwest;fontStyle=1;fillColor=#1ba1e2;fontColor=#000000;strokeColor=#006EAF;" vertex="1" parent="m-XgOq2ROGePgvQ7ubZI-4">
          <mxGeometry y="20" width="200" height="90" as="geometry" />
        </mxCell>
        <mxCell id="m-XgOq2ROGePgvQ7ubZI-7" value="+setComment: void&#xa;+getComment: Comment&#xa;+searchComment: Comment&#xa;&#xa;&#xa;&#xa;" style="text;align=left;verticalAlign=top;spacingLeft=4;spacingRight=4;overflow=hidden;rotatable=0;points=[[0,0.5],[1,0.5]];portConstraint=eastwest;fontStyle=1;fillColor=#1ba1e2;fontColor=#000000;strokeColor=#006EAF;labelBackgroundColor=none;" vertex="1" parent="m-XgOq2ROGePgvQ7ubZI-4">
          <mxGeometry y="110" width="200" height="60" as="geometry" />
        </mxCell>
        <mxCell id="m-XgOq2ROGePgvQ7ubZI-8" value="User" style="swimlane;fontStyle=1;align=center;verticalAlign=middle;childLayout=stackLayout;horizontal=1;startSize=20;horizontalStack=0;resizeParent=1;resizeLast=0;collapsible=1;marginBottom=0;rounded=0;shadow=0;strokeWidth=1;fontSize=14;fontColor=#000000;fillColor=#1ba1e2;strokeColor=#006EAF;" vertex="1" parent="WIyWlLk6GJQsqaUBKTNV-1">
          <mxGeometry x="960" y="900" width="200" height="220" as="geometry">
            <mxRectangle x="550" y="140" width="160" height="26" as="alternateBounds" />
          </mxGeometry>
        </mxCell>
        <mxCell id="m-XgOq2ROGePgvQ7ubZI-9" value="- id: int&#xa;-userName: string&#xa;-age: int&#xa;-addres: string&#xa;-login: string&#xa;-hashPassword: int&#xa;-comments: List&lt;idComment&gt;&#xa;-orderList: List&lt;idOrder&gt;&#xa;&#xa;" style="text;align=left;verticalAlign=top;spacingLeft=4;spacingRight=4;overflow=hidden;rotatable=0;points=[[0,0.5],[1,0.5]];portConstraint=eastwest;fontStyle=1;fillColor=#1ba1e2;fontColor=#000000;strokeColor=#006EAF;" vertex="1" parent="m-XgOq2ROGePgvQ7ubZI-8">
          <mxGeometry y="20" width="200" height="130" as="geometry" />
        </mxCell>
        <mxCell id="m-XgOq2ROGePgvQ7ubZI-11" value="+registerUser: void&#xa;+verification: boolean&#xa;+calculateDiscount: Decimal&#xa;+createOrder: void&#xa;" style="text;align=left;verticalAlign=top;spacingLeft=4;spacingRight=4;overflow=hidden;rotatable=0;points=[[0,0.5],[1,0.5]];portConstraint=eastwest;fontStyle=1;fillColor=#1ba1e2;fontColor=#000000;strokeColor=#006EAF;" vertex="1" parent="m-XgOq2ROGePgvQ7ubZI-8">
          <mxGeometry y="150" width="200" height="70" as="geometry" />
        </mxCell>
        <mxCell id="m-XgOq2ROGePgvQ7ubZI-17" value="«interface»&#xa;SearchProduct" style="swimlane;fontStyle=1;align=center;verticalAlign=middle;childLayout=stackLayout;horizontal=1;startSize=40;horizontalStack=0;resizeParent=1;resizeLast=0;collapsible=1;marginBottom=0;rounded=0;shadow=0;strokeWidth=1;fontSize=14;fillColor=#1ba1e2;fontColor=#000000;strokeColor=#006EAF;" vertex="1" parent="WIyWlLk6GJQsqaUBKTNV-1">
          <mxGeometry x="1041" y="440" width="200" height="80" as="geometry">
            <mxRectangle x="340" y="380" width="170" height="26" as="alternateBounds" />
          </mxGeometry>
        </mxCell>
        <mxCell id="m-XgOq2ROGePgvQ7ubZI-18" value="+searchProduct: Product&#xa;" style="text;align=left;verticalAlign=top;spacingLeft=4;spacingRight=4;overflow=hidden;rotatable=0;points=[[0,0.5],[1,0.5]];portConstraint=eastwest;fontStyle=1;fillColor=#1ba1e2;fontColor=#000000;strokeColor=#006EAF;" vertex="1" parent="m-XgOq2ROGePgvQ7ubZI-17">
          <mxGeometry y="40" width="200" height="40" as="geometry" />
        </mxCell>
        <mxCell id="m-XgOq2ROGePgvQ7ubZI-24" value="Order" style="swimlane;fontStyle=1;align=center;verticalAlign=middle;childLayout=stackLayout;horizontal=1;startSize=20;horizontalStack=0;resizeParent=1;resizeLast=0;collapsible=1;marginBottom=0;rounded=0;shadow=0;strokeWidth=1;fontSize=14;fillColor=#1ba1e2;fontColor=#000000;strokeColor=#006EAF;" vertex="1" parent="WIyWlLk6GJQsqaUBKTNV-1">
          <mxGeometry x="440" y="440" width="210" height="160" as="geometry">
            <mxRectangle x="550" y="140" width="160" height="26" as="alternateBounds" />
          </mxGeometry>
        </mxCell>
        <mxCell id="m-XgOq2ROGePgvQ7ubZI-25" value="-id: int&#xa;-productNameList: List&lt;idProduct&gt;&#xa;-userName: idUser&#xa;&#xa;&#xa;&#xa;" style="text;align=left;verticalAlign=top;spacingLeft=4;spacingRight=4;overflow=hidden;rotatable=0;points=[[0,0.5],[1,0.5]];portConstraint=eastwest;fontStyle=1;fillColor=#1ba1e2;fontColor=#000000;strokeColor=#006EAF;" vertex="1" parent="m-XgOq2ROGePgvQ7ubZI-24">
          <mxGeometry y="20" width="210" height="60" as="geometry" />
        </mxCell>
        <mxCell id="m-XgOq2ROGePgvQ7ubZI-27" value="+createOrder: void&#xa;+toPay(Decimal price): boolean&#xa;+deliver(String addres): boolean" style="text;align=left;verticalAlign=top;spacingLeft=4;spacingRight=4;overflow=hidden;rotatable=0;points=[[0,0.5],[1,0.5]];portConstraint=eastwest;fontStyle=1;fillColor=#1ba1e2;fontColor=#000000;strokeColor=#006EAF;" vertex="1" parent="m-XgOq2ROGePgvQ7ubZI-24">
          <mxGeometry y="80" width="210" height="80" as="geometry" />
        </mxCell>
        <mxCell id="m-XgOq2ROGePgvQ7ubZI-33" value="«interface»&#xa;Buy" style="swimlane;fontStyle=1;align=center;verticalAlign=middle;childLayout=stackLayout;horizontal=1;startSize=40;horizontalStack=0;resizeParent=1;resizeLast=0;collapsible=1;marginBottom=0;rounded=0;shadow=0;strokeWidth=1;fontSize=14;fillColor=#1ba1e2;fontColor=#000000;strokeColor=#006EAF;" vertex="1" parent="WIyWlLk6GJQsqaUBKTNV-1">
          <mxGeometry x="120" y="440" width="200" height="80" as="geometry">
            <mxRectangle x="340" y="380" width="170" height="26" as="alternateBounds" />
          </mxGeometry>
        </mxCell>
        <mxCell id="m-XgOq2ROGePgvQ7ubZI-34" value="+toPay(Decimal price): boolean" style="text;align=left;verticalAlign=top;spacingLeft=4;spacingRight=4;overflow=hidden;rotatable=0;points=[[0,0.5],[1,0.5]];portConstraint=eastwest;fontStyle=1;fillColor=#1ba1e2;fontColor=#000000;strokeColor=#006EAF;" vertex="1" parent="m-XgOq2ROGePgvQ7ubZI-33">
          <mxGeometry y="40" width="200" height="40" as="geometry" />
        </mxCell>
        <mxCell id="m-XgOq2ROGePgvQ7ubZI-35" value="«interface»&#xa;Shipping" style="swimlane;fontStyle=1;align=center;verticalAlign=middle;childLayout=stackLayout;horizontal=1;startSize=40;horizontalStack=0;resizeParent=1;resizeLast=0;collapsible=1;marginBottom=0;rounded=0;shadow=0;strokeWidth=1;fontSize=14;fillColor=#1ba1e2;fontColor=#000000;strokeColor=#006EAF;" vertex="1" parent="WIyWlLk6GJQsqaUBKTNV-1">
          <mxGeometry x="120" y="560" width="200" height="80" as="geometry">
            <mxRectangle x="340" y="380" width="170" height="26" as="alternateBounds" />
          </mxGeometry>
        </mxCell>
        <mxCell id="m-XgOq2ROGePgvQ7ubZI-36" value="+deliver(String addres): boolean" style="text;align=left;verticalAlign=top;spacingLeft=4;spacingRight=4;overflow=hidden;rotatable=0;points=[[0,0.5],[1,0.5]];portConstraint=eastwest;fontStyle=1;fillColor=#1ba1e2;fontColor=#000000;strokeColor=#006EAF;" vertex="1" parent="m-XgOq2ROGePgvQ7ubZI-35">
          <mxGeometry y="40" width="200" height="40" as="geometry" />
        </mxCell>
        <mxCell id="m-XgOq2ROGePgvQ7ubZI-38" value="«interface»&#xa;SearchComment" style="swimlane;fontStyle=1;align=center;verticalAlign=middle;childLayout=stackLayout;horizontal=1;startSize=40;horizontalStack=0;resizeParent=1;resizeLast=0;collapsible=1;marginBottom=0;rounded=0;shadow=0;strokeWidth=1;fontSize=14;fillColor=#1ba1e2;fontColor=#000000;strokeColor=#006EAF;" vertex="1" parent="WIyWlLk6GJQsqaUBKTNV-1">
          <mxGeometry x="1041" y="600" width="200" height="80" as="geometry">
            <mxRectangle x="340" y="380" width="170" height="26" as="alternateBounds" />
          </mxGeometry>
        </mxCell>
        <mxCell id="m-XgOq2ROGePgvQ7ubZI-39" value="+searchComment: Comment&#xa;" style="text;align=left;verticalAlign=top;spacingLeft=4;spacingRight=4;overflow=hidden;rotatable=0;points=[[0,0.5],[1,0.5]];portConstraint=eastwest;fontStyle=1;fillColor=#1ba1e2;fontColor=#000000;strokeColor=#006EAF;" vertex="1" parent="m-XgOq2ROGePgvQ7ubZI-38">
          <mxGeometry y="40" width="200" height="40" as="geometry" />
        </mxCell>
        <mxCell id="m-XgOq2ROGePgvQ7ubZI-44" value="«interface»&#xa;Browser" style="swimlane;fontStyle=1;align=center;verticalAlign=middle;childLayout=stackLayout;horizontal=1;startSize=40;horizontalStack=0;resizeParent=1;resizeLast=0;collapsible=1;marginBottom=0;rounded=0;shadow=0;strokeWidth=1;fontSize=14;fillColor=#1ba1e2;fontColor=#000000;strokeColor=#006EAF;" vertex="1" parent="WIyWlLk6GJQsqaUBKTNV-1">
          <mxGeometry x="560" y="100" width="200" height="160" as="geometry">
            <mxRectangle x="340" y="380" width="170" height="26" as="alternateBounds" />
          </mxGeometry>
        </mxCell>
        <mxCell id="m-XgOq2ROGePgvQ7ubZI-45" value="+registerUser: void&#xa;+verification: boolean&#xa;+searchProduct: Product&#xa;+searchComment: Comment+createOrder: void&#xa;+createRequest: Answer&#xa;&#xa;&#xa;&#xa;&#xa;" style="text;align=left;verticalAlign=top;spacingLeft=4;spacingRight=4;overflow=hidden;rotatable=0;points=[[0,0.5],[1,0.5]];portConstraint=eastwest;fontStyle=1;fillColor=#1ba1e2;fontColor=#000000;strokeColor=#006EAF;" vertex="1" parent="m-XgOq2ROGePgvQ7ubZI-44">
          <mxGeometry y="40" width="200" height="120" as="geometry" />
        </mxCell>
        <mxCell id="m-XgOq2ROGePgvQ7ubZI-46" value="Support" style="swimlane;fontStyle=1;align=center;verticalAlign=middle;childLayout=stackLayout;horizontal=1;startSize=20;horizontalStack=0;resizeParent=1;resizeLast=0;collapsible=1;marginBottom=0;rounded=0;shadow=0;strokeWidth=1;fontSize=14;fillColor=#1ba1e2;fontColor=#000000;strokeColor=#006EAF;" vertex="1" parent="WIyWlLk6GJQsqaUBKTNV-1">
          <mxGeometry x="120" y="680" width="200" height="120" as="geometry">
            <mxRectangle x="550" y="140" width="160" height="26" as="alternateBounds" />
          </mxGeometry>
        </mxCell>
        <mxCell id="m-XgOq2ROGePgvQ7ubZI-47" value="-id: int&#xa;-userName: idUser&#xa;-text: string&#xa;&#xa;&#xa;&#xa;&#xa;" style="text;align=left;verticalAlign=top;spacingLeft=4;spacingRight=4;overflow=hidden;rotatable=0;points=[[0,0.5],[1,0.5]];portConstraint=eastwest;fontStyle=1;fillColor=#1ba1e2;fontColor=#000000;strokeColor=#006EAF;" vertex="1" parent="m-XgOq2ROGePgvQ7ubZI-46">
          <mxGeometry y="20" width="200" height="60" as="geometry" />
        </mxCell>
        <mxCell id="m-XgOq2ROGePgvQ7ubZI-49" value="+createRequest: Answer" style="text;align=left;verticalAlign=top;spacingLeft=4;spacingRight=4;overflow=hidden;rotatable=0;points=[[0,0.5],[1,0.5]];portConstraint=eastwest;fontStyle=1;fillColor=#1ba1e2;fontColor=#000000;strokeColor=#006EAF;" vertex="1" parent="m-XgOq2ROGePgvQ7ubZI-46">
          <mxGeometry y="80" width="200" height="40" as="geometry" />
        </mxCell>
        <mxCell id="m-XgOq2ROGePgvQ7ubZI-50" value="Discount" style="swimlane;fontStyle=1;align=center;verticalAlign=middle;childLayout=stackLayout;horizontal=1;startSize=20;horizontalStack=0;resizeParent=1;resizeLast=0;collapsible=1;marginBottom=0;rounded=0;shadow=0;strokeWidth=1;fontSize=14;fillColor=#1ba1e2;fontColor=#000000;strokeColor=#006EAF;" vertex="1" parent="WIyWlLk6GJQsqaUBKTNV-1">
          <mxGeometry x="760" y="440" width="200" height="120" as="geometry">
            <mxRectangle x="550" y="140" width="160" height="26" as="alternateBounds" />
          </mxGeometry>
        </mxCell>
        <mxCell id="m-XgOq2ROGePgvQ7ubZI-51" value="-id: int&#xa;-userName: idUser&#xa;-orderList: List&lt;idOrder&gt;&#xa;&#xa;&#xa;&#xa;&#xa;" style="text;align=left;verticalAlign=top;spacingLeft=4;spacingRight=4;overflow=hidden;rotatable=0;points=[[0,0.5],[1,0.5]];portConstraint=eastwest;fontStyle=1;fillColor=#1ba1e2;fontColor=#000000;strokeColor=#006EAF;" vertex="1" parent="m-XgOq2ROGePgvQ7ubZI-50">
          <mxGeometry y="20" width="200" height="60" as="geometry" />
        </mxCell>
        <mxCell id="m-XgOq2ROGePgvQ7ubZI-53" value="+calculateDiscount: Decimal" style="text;align=left;verticalAlign=top;spacingLeft=4;spacingRight=4;overflow=hidden;rotatable=0;points=[[0,0.5],[1,0.5]];portConstraint=eastwest;fontStyle=1;fillColor=#1ba1e2;fontColor=#000000;strokeColor=#006EAF;" vertex="1" parent="m-XgOq2ROGePgvQ7ubZI-50">
          <mxGeometry y="80" width="200" height="40" as="geometry" />
        </mxCell>
        <mxCell id="m-XgOq2ROGePgvQ7ubZI-56" value="" style="endArrow=block;dashed=1;endFill=0;endSize=12;html=1;rounded=0;exitX=1.015;exitY=0.28;exitDx=0;exitDy=0;exitPerimeter=0;entryX=0.4;entryY=0.038;entryDx=0;entryDy=0;entryPerimeter=0;" edge="1" parent="WIyWlLk6GJQsqaUBKTNV-1" target="m-XgOq2ROGePgvQ7ubZI-17">
          <mxGeometry width="160" relative="1" as="geometry">
            <mxPoint x="760" y="161" as="sourcePoint" />
            <mxPoint x="1100" y="320" as="targetPoint" />
            <Array as="points">
              <mxPoint x="1120" y="161" />
            </Array>
          </mxGeometry>
        </mxCell>
        <mxCell id="m-XgOq2ROGePgvQ7ubZI-57" value="" style="endArrow=block;dashed=1;endFill=0;endSize=12;html=1;rounded=0;entryX=0;entryY=0.25;entryDx=0;entryDy=0;" edge="1" parent="WIyWlLk6GJQsqaUBKTNV-1" source="m-XgOq2ROGePgvQ7ubZI-45" target="m-XgOq2ROGePgvQ7ubZI-38">
          <mxGeometry width="160" relative="1" as="geometry">
            <mxPoint x="960" y="201" as="sourcePoint" />
            <mxPoint x="1190" y="320" as="targetPoint" />
            <Array as="points">
              <mxPoint x="1000" y="200" />
              <mxPoint x="1000" y="620" />
            </Array>
          </mxGeometry>
        </mxCell>
        <mxCell id="m-XgOq2ROGePgvQ7ubZI-59" value="" style="endArrow=open;html=1;endSize=12;startArrow=diamondThin;startSize=14;startFill=0;edgeStyle=orthogonalEdgeStyle;rounded=0;exitX=0.007;exitY=0.172;exitDx=0;exitDy=0;exitPerimeter=0;" edge="1" parent="WIyWlLk6GJQsqaUBKTNV-1">
          <mxGeometry x="-0.5" y="50" relative="1" as="geometry">
            <mxPoint x="960.0000000000001" y="1040.6399999999999" as="sourcePoint" />
            <mxPoint x="758.5999999999996" y="1040" as="targetPoint" />
            <mxPoint as="offset" />
          </mxGeometry>
        </mxCell>
        <mxCell id="m-XgOq2ROGePgvQ7ubZI-60" value="1" style="edgeLabel;resizable=0;html=1;align=left;verticalAlign=top;fontStyle=1" connectable="0" vertex="1" parent="m-XgOq2ROGePgvQ7ubZI-59">
          <mxGeometry x="-1" relative="1" as="geometry">
            <mxPoint x="-22" as="offset" />
          </mxGeometry>
        </mxCell>
        <mxCell id="m-XgOq2ROGePgvQ7ubZI-61" value="0..*" style="edgeLabel;resizable=0;html=1;align=right;verticalAlign=top;fontStyle=1" connectable="0" vertex="1" parent="m-XgOq2ROGePgvQ7ubZI-59">
          <mxGeometry x="1" relative="1" as="geometry">
            <mxPoint x="30" as="offset" />
          </mxGeometry>
        </mxCell>
        <mxCell id="m-XgOq2ROGePgvQ7ubZI-62" value="" style="endArrow=open;html=1;endSize=12;startArrow=diamondThin;startSize=14;startFill=0;edgeStyle=orthogonalEdgeStyle;rounded=0;" edge="1" parent="WIyWlLk6GJQsqaUBKTNV-1">
          <mxGeometry y="-30" relative="1" as="geometry">
            <mxPoint x="360" y="1040" as="sourcePoint" />
            <mxPoint x="560" y="1040" as="targetPoint" />
            <mxPoint as="offset" />
          </mxGeometry>
        </mxCell>
        <mxCell id="m-XgOq2ROGePgvQ7ubZI-63" value="&lt;b&gt;1&lt;/b&gt;" style="edgeLabel;resizable=0;html=1;align=left;verticalAlign=top;" connectable="0" vertex="1" parent="m-XgOq2ROGePgvQ7ubZI-62">
          <mxGeometry x="-1" relative="1" as="geometry">
            <mxPoint x="20" as="offset" />
          </mxGeometry>
        </mxCell>
        <mxCell id="m-XgOq2ROGePgvQ7ubZI-64" value="&lt;b&gt;0..*&lt;/b&gt;" style="edgeLabel;resizable=0;html=1;align=right;verticalAlign=top;" connectable="0" vertex="1" parent="m-XgOq2ROGePgvQ7ubZI-62">
          <mxGeometry x="1" relative="1" as="geometry">
            <mxPoint x="-10" as="offset" />
          </mxGeometry>
        </mxCell>
        <mxCell id="m-XgOq2ROGePgvQ7ubZI-66" value="" style="endArrow=block;dashed=1;endFill=0;endSize=12;html=1;rounded=0;entryX=0;entryY=0.75;entryDx=0;entryDy=0;" edge="1" parent="WIyWlLk6GJQsqaUBKTNV-1" target="m-XgOq2ROGePgvQ7ubZI-38">
          <mxGeometry width="160" relative="1" as="geometry">
            <mxPoint x="760" y="1000" as="sourcePoint" />
            <mxPoint x="970" y="800" as="targetPoint" />
            <Array as="points">
              <mxPoint x="840" y="1000" />
              <mxPoint x="840" y="660" />
            </Array>
          </mxGeometry>
        </mxCell>
        <mxCell id="m-XgOq2ROGePgvQ7ubZI-67" value="" style="endArrow=block;dashed=1;endFill=0;endSize=12;html=1;rounded=0;entryX=0.195;entryY=1;entryDx=0;entryDy=0;entryPerimeter=0;exitX=1.014;exitY=0.238;exitDx=0;exitDy=0;exitPerimeter=0;" edge="1" parent="WIyWlLk6GJQsqaUBKTNV-1" source="m-XgOq2ROGePgvQ7ubZI-1" target="m-XgOq2ROGePgvQ7ubZI-18">
          <mxGeometry width="160" relative="1" as="geometry">
            <mxPoint x="810" y="690" as="sourcePoint" />
            <mxPoint x="970" y="690" as="targetPoint" />
            <Array as="points">
              <mxPoint x="440" y="960" />
              <mxPoint x="440" y="720" />
              <mxPoint x="800" y="720" />
              <mxPoint x="800" y="580" />
              <mxPoint x="1080" y="580" />
            </Array>
          </mxGeometry>
        </mxCell>
        <mxCell id="m-XgOq2ROGePgvQ7ubZI-68" value="" style="endArrow=block;dashed=1;endFill=0;endSize=12;html=1;rounded=0;exitX=0.793;exitY=1;exitDx=0;exitDy=0;exitPerimeter=0;entryX=0;entryY=0.385;entryDx=0;entryDy=0;entryPerimeter=0;" edge="1" parent="WIyWlLk6GJQsqaUBKTNV-1" source="m-XgOq2ROGePgvQ7ubZI-45" target="m-XgOq2ROGePgvQ7ubZI-9">
          <mxGeometry width="160" relative="1" as="geometry">
            <mxPoint x="759.9999999999995" y="400" as="sourcePoint" />
            <mxPoint x="960" y="980" as="targetPoint" />
            <Array as="points">
              <mxPoint x="720" y="480" />
              <mxPoint x="720" y="800" />
              <mxPoint x="800" y="800" />
              <mxPoint x="800" y="970" />
            </Array>
          </mxGeometry>
        </mxCell>
        <mxCell id="m-XgOq2ROGePgvQ7ubZI-70" value="" style="endArrow=block;dashed=1;endFill=0;endSize=12;html=1;rounded=0;" edge="1" parent="WIyWlLk6GJQsqaUBKTNV-1">
          <mxGeometry width="160" relative="1" as="geometry">
            <mxPoint x="320" y="499.65999999999997" as="sourcePoint" />
            <mxPoint x="440" y="499.65999999999997" as="targetPoint" />
          </mxGeometry>
        </mxCell>
        <mxCell id="m-XgOq2ROGePgvQ7ubZI-72" value="" style="endArrow=block;dashed=1;endFill=0;endSize=12;html=1;rounded=0;" edge="1" parent="WIyWlLk6GJQsqaUBKTNV-1">
          <mxGeometry width="160" relative="1" as="geometry">
            <mxPoint x="320" y="574.66" as="sourcePoint" />
            <mxPoint x="440" y="574.66" as="targetPoint" />
          </mxGeometry>
        </mxCell>
        <mxCell id="m-XgOq2ROGePgvQ7ubZI-73" value="" style="endArrow=block;dashed=1;endFill=0;endSize=12;html=1;rounded=0;entryX=1;entryY=0.5;entryDx=0;entryDy=0;exitX=0;exitY=0.5;exitDx=0;exitDy=0;" edge="1" parent="WIyWlLk6GJQsqaUBKTNV-1" source="m-XgOq2ROGePgvQ7ubZI-45" target="m-XgOq2ROGePgvQ7ubZI-49">
          <mxGeometry width="160" relative="1" as="geometry">
            <mxPoint x="519.9999999999995" y="400" as="sourcePoint" />
            <mxPoint x="359.99999999999955" y="400" as="targetPoint" />
            <Array as="points">
              <mxPoint x="360" y="200" />
              <mxPoint x="360" y="780" />
            </Array>
          </mxGeometry>
        </mxCell>
        <mxCell id="m-XgOq2ROGePgvQ7ubZI-74" value="" style="endArrow=open;html=1;endSize=12;startArrow=diamondThin;startSize=14;startFill=0;edgeStyle=orthogonalEdgeStyle;rounded=0;exitX=0.4;exitY=0.991;exitDx=0;exitDy=0;exitPerimeter=0;entryX=0.996;entryY=0.674;entryDx=0;entryDy=0;entryPerimeter=0;" edge="1" parent="WIyWlLk6GJQsqaUBKTNV-1" source="m-XgOq2ROGePgvQ7ubZI-27" target="m-XgOq2ROGePgvQ7ubZI-1">
          <mxGeometry y="-30" relative="1" as="geometry">
            <mxPoint x="669.9999999999995" y="760" as="sourcePoint" />
            <mxPoint x="469.99999999999955" y="760" as="targetPoint" />
            <mxPoint as="offset" />
          </mxGeometry>
        </mxCell>
        <mxCell id="m-XgOq2ROGePgvQ7ubZI-75" value="&lt;b&gt;1&lt;/b&gt;" style="edgeLabel;resizable=0;html=1;align=left;verticalAlign=top;" connectable="0" vertex="1" parent="m-XgOq2ROGePgvQ7ubZI-74">
          <mxGeometry x="-1" relative="1" as="geometry">
            <mxPoint y="10" as="offset" />
          </mxGeometry>
        </mxCell>
        <mxCell id="m-XgOq2ROGePgvQ7ubZI-76" value="&lt;b&gt;1..*&lt;/b&gt;" style="edgeLabel;resizable=0;html=1;align=right;verticalAlign=top;" connectable="0" vertex="1" parent="m-XgOq2ROGePgvQ7ubZI-74">
          <mxGeometry x="1" relative="1" as="geometry">
            <mxPoint x="31" as="offset" />
          </mxGeometry>
        </mxCell>
        <mxCell id="m-XgOq2ROGePgvQ7ubZI-80" value="" style="endArrow=block;endSize=16;endFill=0;html=1;rounded=0;exitX=0.679;exitY=1;exitDx=0;exitDy=0;exitPerimeter=0;" edge="1" parent="WIyWlLk6GJQsqaUBKTNV-1" source="m-XgOq2ROGePgvQ7ubZI-53">
          <mxGeometry x="1" y="61" width="160" relative="1" as="geometry">
            <mxPoint x="859.9999999999995" y="620" as="sourcePoint" />
            <mxPoint x="960" y="940" as="targetPoint" />
            <mxPoint x="60" y="51" as="offset" />
            <Array as="points">
              <mxPoint x="900" y="940" />
            </Array>
          </mxGeometry>
        </mxCell>
        <mxCell id="m-XgOq2ROGePgvQ7ubZI-82" value="" style="endArrow=block;endSize=16;endFill=0;html=1;rounded=0;exitX=0.762;exitY=1;exitDx=0;exitDy=0;exitPerimeter=0;" edge="1" parent="WIyWlLk6GJQsqaUBKTNV-1" source="m-XgOq2ROGePgvQ7ubZI-27">
          <mxGeometry x="1" y="61" width="160" relative="1" as="geometry">
            <mxPoint x="680" y="679.31" as="sourcePoint" />
            <mxPoint x="960" y="1000" as="targetPoint" />
            <mxPoint x="60" y="51" as="offset" />
            <Array as="points">
              <mxPoint x="600" y="760" />
              <mxPoint x="870" y="760" />
              <mxPoint x="870" y="1000" />
            </Array>
          </mxGeometry>
        </mxCell>
        <mxCell id="m-XgOq2ROGePgvQ7ubZI-84" value="" style="endArrow=block;dashed=1;endFill=0;endSize=12;html=1;rounded=0;exitX=0.6;exitY=1;exitDx=0;exitDy=0;exitPerimeter=0;entryX=1;entryY=0.5;entryDx=0;entryDy=0;" edge="1" parent="WIyWlLk6GJQsqaUBKTNV-1" source="m-XgOq2ROGePgvQ7ubZI-45" target="m-XgOq2ROGePgvQ7ubZI-25">
          <mxGeometry width="160" relative="1" as="geometry">
            <mxPoint x="580" y="560" as="sourcePoint" />
            <mxPoint x="740" y="560" as="targetPoint" />
            <Array as="points">
              <mxPoint x="680" y="490" />
            </Array>
          </mxGeometry>
        </mxCell>
      </root>
    </mxGraphModel>
  </diagram>
</mxfile>
